HIERARCHY
ROOT Hips
{
	OFFSET 0.000000 0.000000 0.000000
	CHANNELS 6 Xposition Yposition Zposition Zrotation Yrotation Xrotation 
	JOINT LHipJoint
	{
		OFFSET 0.000000 0.000000 0.000000
		CHANNELS 3 Zrotation Yrotation Xrotation
		JOINT LeftUpLeg
		{
			OFFSET 1.363060 -1.794630 0.839290
			CHANNELS 3 Zrotation Yrotation Xrotation
			JOINT LeftLeg
			{
				OFFSET 2.448110 -6.726130 0.000000
				CHANNELS 3 Zrotation Yrotation Xrotation
				JOINT LeftFoot
				{
					OFFSET 2.562200 -7.039590 0.000000
					CHANNELS 3 Zrotation Yrotation Xrotation
					JOINT LeftToeBase
					{
						OFFSET 0.157640 -0.433110 2.322550
						CHANNELS 3 Zrotation Yrotation Xrotation
						End Site
						{
							OFFSET 0.000000 0.000000 0.000000
						}
					}
				}
			}
		}
	}
	JOINT RHipJoint
	{
		OFFSET 0.000000 0.000000 0.000000
		CHANNELS 3 Zrotation Yrotation Xrotation
		JOINT RightUpLeg
		{
			OFFSET -1.305520 -1.794630 0.839290
			CHANNELS 3 Zrotation Yrotation Xrotation
			JOINT RightLeg
			{
				OFFSET -2.542530 -6.985550 0.000000
				CHANNELS 3 Zrotation Yrotation Xrotation
				JOINT RightFoot
				{
					OFFSET -2.568260 -7.056230 0.000000
					CHANNELS 3 Zrotation Yrotation Xrotation
					JOINT RightToeBase
					{
						OFFSET -0.164730 -0.452590 2.363150
						CHANNELS 3 Zrotation Yrotation Xrotation
						End Site
						{
							OFFSET 0.000000 0.000000 0.000000
						}
					}
				}
			}
		}
	}
	JOINT LowerBack
	{
		OFFSET 0.000000 0.000000 0.000000
		CHANNELS 3 Zrotation Yrotation Xrotation
		JOINT Spine
		{
			OFFSET 0.028270 2.035590 -0.193380
			CHANNELS 3 Zrotation Yrotation Xrotation
			JOINT Spine1
			{
				OFFSET 0.056720 2.048850 -0.042750
				CHANNELS 3 Zrotation Yrotation Xrotation
				JOINT Neck
				{
					OFFSET 0.000000 0.000000 0.000000
					CHANNELS 3 Zrotation Yrotation Xrotation
					JOINT Neck1
					{
						OFFSET -0.054170 1.746240 0.172020
						CHANNELS 3 Zrotation Yrotation Xrotation
						JOINT Head
						{
							OFFSET 0.104070 1.761360 -0.123970
							CHANNELS 3 Zrotation Yrotation Xrotation
							End Site
							{
								OFFSET 0.000000 0.000000 0.000000
							}
						}
					}
				}
				JOINT LeftShoulder
				{
					OFFSET 0.000000 0.000000 0.000000
					CHANNELS 3 Zrotation Yrotation Xrotation
					JOINT LeftArm
					{
						OFFSET 3.362410 1.200890 -0.311210
						CHANNELS 3 Zrotation Yrotation Xrotation
						JOINT LeftForeArm
						{
							OFFSET 4.983000 -0.000000 -0.000000
							CHANNELS 3 Zrotation Yrotation Xrotation
							JOINT LeftHand
							{
								OFFSET 3.483560 -0.000000 -0.000000
								CHANNELS 3 Zrotation Yrotation Xrotation
								JOINT LeftFingerBase
								{
									OFFSET 0.000000 0.000000 0.000000
									CHANNELS 3 Zrotation Yrotation Xrotation
									JOINT LeftHandIndex1
									{
										OFFSET 0.715260 -0.000000 -0.000000
										CHANNELS 3 Zrotation Yrotation Xrotation
										End Site
										{
											OFFSET 0.000000 0.000000 0.000000
										}
									}
								}
								JOINT LThumb
								{
									OFFSET 0.000000 0.000000 0.000000
									CHANNELS 3 Zrotation Yrotation Xrotation
									End Site
									{
										OFFSET 0.000000 0.000000 0.000000
									}
								}
							}
						}
					}
				}
				JOINT RightShoulder
				{
					OFFSET 0.000000 0.000000 0.000000
					CHANNELS 3 Zrotation Yrotation Xrotation
					JOINT RightArm
					{
						OFFSET -3.136600 1.374050 -0.404650
						CHANNELS 3 Zrotation Yrotation Xrotation
						JOINT RightForeArm
						{
							OFFSET -5.241900 -0.000000 -0.000000
							CHANNELS 3 Zrotation Yrotation Xrotation
							JOINT RightHand
							{
								OFFSET -3.444170 -0.000000 -0.000000
								CHANNELS 3 Zrotation Yrotation Xrotation
								JOINT RightFingerBase
								{
									OFFSET 0.000000 0.000000 0.000000
									CHANNELS 3 Zrotation Yrotation Xrotation
									JOINT RightHandIndex1
									{
										OFFSET -0.622530 -0.000000 -0.000000
										CHANNELS 3 Zrotation Yrotation Xrotation
										End Site
										{
											OFFSET 0.000000 0.000000 0.000000
										}
									}
								}
								JOINT RThumb
								{
									OFFSET 0.000000 0.000000 0.000000
									CHANNELS 3 Zrotation Yrotation Xrotation
									End Site
									{
										OFFSET 0.000000 0.000000 0.000000
									}
								}
							}
						}
					}
				}
			}
		}
	}
}
MOTION
Frames: 12
Frame Time: 0.008333
-2.904377 15.585167 -0.247881 -100.766789 83.837960 -75.509369 -8.634015 -1.523888 -1.725407 -22.012379 4.934856 -71.540790 -1.951102 4.065059 52.633460 3.059346 10.483299 -18.926866 178.173500 0.000000 -0.774200 10.567989 -2.938758 -5.807347 14.105563 -17.631179 -30.100444 1.568880 -5.146388 61.351268 0.876720 11.143229 -9.908420 -0.638400 -0.000001 -77.882300 -1.448687 0.275788 9.409726 -0.919474 0.585030 -1.174428 -4.920097 0.588557 -0.368120 7.381560 -7.789815 -9.668225 -1.188090 -0.029325 -0.973979 0.000000 0.000000 0.000000 0.576310 15.709845 3.970115 -72.646432 20.974238 14.004310 -1.759123 -56.627389 -0.001512 -2.084648 5.296503 -0.093955 -0.035416 0.029562 0.000000 0.000000 0.000000 0.000000 0.000000 0.000000 0.000000 1.958906 -0.806183 0.073742 60.159499 13.548067 10.288617 179.904412 89.550025 179.997548 -0.492141 0.113755 -0.001731 0.006950 -0.372846 -0.000000 0.000000 0.000000 0.000000 0.000000 0.000000 0.000000 
-2.752151 15.568055 -0.270823 -100.193688 83.701569 -75.132186 -8.620417 -1.533844 -1.808464 -21.799450 5.142461 -71.382532 -1.833748 4.149302 53.983901 3.088537 10.603165 -19.547995 178.002899 -0.000000 -1.546900 10.729449 -2.927480 -5.776269 13.543163 -17.799454 -29.812086 1.394948 -5.179829 61.945985 0.936814 11.758799 -8.325320 -0.419300 -0.000000 -79.537201 -1.703082 0.283607 9.432663 -0.990222 0.595902 -1.177549 -4.989510 0.600777 -0.396032 7.462500 -7.754668 -9.668876 -1.208876 -0.030815 -0.974374 0.000000 0.000000 0.000000 0.526818 15.665696 3.963519 -72.480582 20.638570 13.920391 -1.773289 -56.536406 -0.001616 -2.043242 5.334996 -0.092652 -0.036315 0.030056 0.000000 0.000000 0.000000 0.000000 0.000000 0.000000 0.000000 2.119910 -0.752122 0.091797 60.569141 13.245308 10.517745 179.917641 89.951172 179.998401 -0.363604 0.176636 -0.001427 0.004489 -0.371665 -0.000000 0.000000 0.000000 0.000000 0.000000 0.000000 0.000000 
-2.600734 15.553386 -0.295383 -99.919307 83.579909 -75.040442 -8.613873 -1.536105 -1.883724 -21.630596 5.328796 -71.133399 -1.738653 4.211992 55.153165 3.136416 10.766504 -20.279936 177.798500 0.000001 -1.935300 10.873074 -2.915045 -5.747489 13.000597 -17.958247 -29.580062 1.217960 -5.214081 62.563441 0.976674 12.304957 -6.719111 -0.149600 -0.000001 -80.841500 -1.939237 0.288416 9.450990 -1.056330 0.602531 -1.180800 -5.055364 0.608529 -0.421611 7.518721 -7.723013 -9.666828 -1.233666 -0.032671 -0.974019 0.000000 0.000000 0.000000 0.467048 15.605732 3.951923 -72.311330 20.257849 13.818715 -1.785215 -56.463725 -0.001751 -1.968759 5.370044 -0.089745 -0.037539 0.030903 0.000000 0.000000 0.000000 0.000000 0.000000 0.000000 0.000000 2.282974 -0.709570 0.112087 60.983796 12.935331 10.744335 -0.065656 89.560905 -0.000897 -0.257888 0.240758 -0.001021 0.002608 -0.370042 -0.000000 0.000000 0.000000 0.000000 0.000000 0.000000 0.000000 
-2.450399 15.540912 -0.321993 -99.893192 83.464798 -75.186302 -8.617172 -1.536331 -1.950359 -21.478775 5.491409 -70.795512 -1.661946 4.254416 56.155192 3.200758 10.970646 -21.101855 177.562900 0.000000 -2.010900 10.997368 -2.902768 -5.722109 12.490348 -18.104879 -29.406417 1.036879 -5.250149 63.213211 0.996166 12.765569 -5.078084 0.169300 -0.000000 -81.817600 -2.146387 0.290637 9.465937 -1.115083 0.605396 -1.183558 -5.116068 0.612279 -0.443719 7.545682 -7.694610 -9.663284 -1.261840 -0.034830 -0.973225 0.000000 0.000000 0.000000 0.398468 15.535404 3.935546 -72.149602 19.834765 13.694966 -1.794682 -56.407721 -0.001912 -1.861976 5.396098 -0.085037 -0.039064 0.032157 0.000000 0.000000 0.000000 0.000000 0.000000 0.000000 0.000000 2.441026 -0.678188 0.134275 61.397925 12.625978 10.970667 -0.046150 88.981742 -0.001174 -0.174300 0.306660 -0.000616 0.001300 -0.367940 -0.000000 0.000000 0.000000 0.000000 0.000000 0.000000 0.000000 
-2.301421 15.530314 -0.350907 -100.051804 83.348737 -75.508907 -8.632071 -1.539071 -2.008590 -21.321011 5.630825 -70.377093 -1.599273 4.279070 57.012876 3.277772 11.208362 -21.985838 177.301200 0.000001 -1.852700 11.102237 -2.890614 -5.700371 12.021934 -18.234307 -29.293391 0.850098 -5.288424 63.904560 0.995296 13.129150 -3.381636 0.536000 0.000000 -82.493100 -2.317516 0.291073 9.478813 -1.164684 0.605424 -1.185334 -5.170476 0.612952 -0.461763 7.541182 -7.668169 -9.659387 -1.292781 -0.037225 -0.972323 0.000000 0.000000 0.000000 0.324644 15.459486 3.914886 -72.005069 19.372179 13.546528 -1.801533 -56.367974 -0.002089 -1.725452 5.407415 -0.078727 -0.040848 0.033872 0.000000 0.000000 0.000000 0.000000 0.000000 0.000000 0.000000 2.588704 -0.655888 0.158352 61.806997 12.323652 11.198219 -0.021298 88.309235 0.000084 -0.110379 0.375352 -0.000308 0.000524 -0.365347 -0.000000 0.000000 0.000000 0.000000 0.000000 0.000000 0.000000 
-2.154121 15.521349 -0.382200 -100.328115 83.226402 -75.943154 -8.659254 -1.547221 -2.059396 -21.141015 5.749138 -69.890555 -1.546324 4.289275 57.754189 3.362702 11.469258 -22.900911 177.020700 0.000000 -1.549400 11.188635 -2.877327 -5.681565 11.601734 -18.339462 -29.243710 0.656323 -5.328569 64.644292 0.974055 13.390164 -1.606652 0.948600 -0.000000 -82.888200 -2.449510 0.290775 9.490463 -1.204252 0.603818 -1.185899 -5.217741 0.611753 -0.475727 7.505180 -7.641554 -9.656074 -1.325785 -0.039785 -0.971608 0.000000 0.000000 0.000000 0.249918 15.381633 3.890588 -71.884439 18.874891 13.372915 -1.805649 -56.346128 -0.002280 -1.562940 5.399032 -0.070813 -0.042845 0.036086 0.000000 0.000000 0.000000 0.000000 0.000000 0.000000 0.000000 2.721904 -0.639181 0.184657 62.207784 12.032444 11.426824 0.006367 87.543249 0.000408 -0.062287 0.447725 -0.000001 0.000218 -0.362276 -0.000000 0.000000 0.000000 0.000000 0.000000 0.000000 0.000000 
-2.008751 15.513730 -0.415719 -100.663137 83.094853 -76.430434 -8.698239 -1.561949 -2.104233 -20.930219 5.849799 -69.352206 -1.499340 4.288842 58.408069 3.450461 11.741485 -23.816125 176.730000 0.000000 -1.189700 11.258418 -2.860864 -5.664307 11.232843 -18.412840 -29.259843 0.455099 -5.369633 65.436137 0.932333 13.549002 0.268889 1.404400 -0.000001 -83.006700 -2.543388 0.290525 9.501294 -1.233926 0.601544 -1.185159 -5.257577 0.609669 -0.485757 7.440135 -7.612475 -9.654133 -1.360231 -0.042443 -0.971363 0.000000 0.000000 0.000000 0.180195 15.304974 3.863361 -71.792037 18.345802 13.177575 -1.807021 -56.344581 -0.002475 -1.379689 5.366884 -0.061698 -0.045000 0.038833 0.000000 0.000000 0.000000 0.000000 0.000000 0.000000 0.000000 2.839169 -0.624384 0.213663 62.598411 11.754203 11.654607 0.037585 86.685673 0.000659 -0.025406 0.524254 0.000208 0.000300 -0.358747 -0.000000 0.000000 0.000000 0.000000 0.000000 0.000000 0.000000 
-1.865596 15.507344 -0.451169 -101.015912 82.953181 -76.929774 -8.747861 -1.583125 -2.144853 -20.687530 5.936812 -68.779795 -1.455384 4.281592 59.001443 3.536129 12.012563 -24.704149 176.438600 0.000000 -0.849600 11.313485 -2.839016 -5.646710 10.916830 -18.446515 -29.343799 0.247532 -5.410255 66.279699 0.870120 13.610411 2.257031 1.897200 0.000000 -82.825400 -2.602641 0.291059 9.511205 -1.254529 0.599510 -1.183536 -5.290333 0.607606 -0.493486 7.350146 -7.578184 -9.653074 -1.395642 -0.045166 -0.971488 0.000000 0.000000 0.000000 0.119784 15.225611 3.833754 -71.727982 17.795032 12.961543 -1.805408 -56.371584 -0.002669 -1.182219 5.309769 -0.051781 -0.047237 0.042113 0.000000 0.000000 0.000000 0.000000 0.000000 0.000000 0.000000 2.940715 -0.607175 0.246518 62.978303 11.487497 11.878472 0.072246 85.740232 0.000867 0.004600 0.605791 0.000415 0.000709 -0.354809 -0.000000 0.000000 0.000000 0.000000 0.000000 0.000000 0.000000 
-1.724833 15.502090 -0.488091 -101.366853 82.803615 -77.420154 -8.805896 -1.608935 -2.183290 -20.419612 6.015105 -68.189485 -1.412810 4.270936 59.555399 3.615502 12.270714 -25.543405 176.155400 0.000000 -0.583000 11.356304 -2.809421 -5.626863 10.651957 -18.434717 -29.496840 0.036267 -5.448978 67.171032 0.787769 13.582007 4.357212 2.417301 0.000000 -82.299499 -2.634395 0.292417 9.520056 -1.267707 0.597940 -1.181236 -5.316611 0.605825 -0.499727 7.241308 -7.536391 -9.652841 -1.431581 -0.047914 -0.972039 0.000000 0.000000 0.000000 0.074848 15.143047 3.802407 -71.688952 17.226191 12.733974 -1.800880 -56.432767 -0.002858 -0.976983 5.228078 -0.041562 -0.049507 0.045916 0.000000 0.000000 0.000000 0.000000 0.000000 0.000000 0.000000 3.029247 -0.584145 0.283954 63.347711 11.230364 12.094246 0.110246 84.711967 0.001056 0.031275 0.691703 0.000723 0.001387 -0.350498 -0.000000 0.000000 0.000000 0.000000 0.000000 0.000000 0.000000 
-1.586641 15.497962 -0.525960 -101.719269 82.648204 -77.903386 -8.870335 -1.637466 -2.221362 -20.136480 6.090356 -67.596909 -1.371037 4.259689 60.084549 3.685161 12.504440 -26.319085 175.888400 -0.000001 -0.414200 11.388336 -2.770937 -5.603010 10.437804 -18.372820 -29.718277 -0.174328 -5.484539 68.102240 0.686518 13.469846 6.546745 2.948400 0.000000 -81.361100 -2.644917 0.294331 9.527495 -1.274980 0.596708 -1.178502 -5.337360 0.604231 -0.505120 7.120108 -7.485305 -9.653098 -1.467738 -0.050663 -0.972958 0.000000 0.000000 0.000000 0.050827 15.056569 3.769776 -71.668686 16.641121 12.507413 -1.793627 -56.532896 -0.003038 -0.770249 5.123985 -0.031341 -0.051778 0.050215 0.000000 0.000000 0.000000 0.000000 0.000000 0.000000 0.000000 3.108357 -0.552730 0.326478 63.707106 10.978838 12.296149 0.151465 83.607709 0.001249 0.058647 0.780959 0.001032 0.002263 -0.345842 0.000000 0.000000 0.000000 0.000000 0.000000 0.000000 0.000000 
-1.451071 15.495062 -0.564106 -102.104114 82.496340 -78.409954 -8.937408 -1.664265 -2.261083 -19.857884 6.164511 -67.006975 -1.330924 4.249146 60.592403 3.743329 12.706413 -27.023648 175.643301 0.000000 -0.339199 11.412901 -2.721364 -5.575268 10.262054 -18.266224 -30.006387 -0.379326 -5.516698 69.064955 0.568866 13.282323 8.785630 3.469900 0.000000 -79.953400 -2.647291 0.295416 9.534789 -1.279483 0.594625 -1.176004 -5.354119 0.601667 -0.513413 6.993773 -7.424231 -9.650475 -1.504016 -0.053456 -0.973297 0.000000 0.000000 0.000000 0.047748 14.947890 3.735732 -71.657219 16.061405 12.279438 -1.782899 -56.693142 -0.003204 -0.570794 5.006387 -0.021920 -0.053926 0.054910 0.000000 0.000000 0.000000 0.000000 0.000000 0.000000 0.000000 3.183586 -0.512270 0.376044 64.059415 10.728274 12.482170 0.195961 82.432007 0.001438 0.084778 0.873981 0.001341 0.003397 -0.340920 0.000000 0.000000 0.000000 0.000000 0.000000 0.000000 0.000000 
-1.318175 15.493419 -0.602122 -102.556837 82.348348 -78.973477 -9.006052 -1.688195 -2.303460 -19.593082 6.243639 -66.428779 -1.293509 4.240377 61.079672 3.788902 12.869055 -27.657062 175.423899 -0.000000 -0.332000 11.429780 -2.662447 -5.542933 10.127257 -18.113878 -30.356834 -0.573499 -5.545553 70.047744 0.438816 13.014194 11.003100 3.950800 0.000001 -78.018800 -2.644628 0.294771 9.541831 -1.282019 0.590846 -1.173361 -5.367828 0.597358 -0.522881 6.868330 -7.353029 -9.645795 -1.540190 -0.056257 -0.973309 0.000000 0.000000 0.000000 0.071071 14.826062 3.700608 -71.644790 15.474765 12.074701 -1.769491 -56.908599 -0.003364 -0.381769 4.878956 -0.013198 -0.056004 0.059970 0.000000 0.000000 0.000000 0.000000 0.000000 0.000000 0.000000 3.259116 -0.462819 0.431676 64.404816 10.474642 12.645925 0.243558 81.194259 0.001641 0.113181 0.966899 0.001650 0.004703 -0.335701 0.000000 0.000000 0.000000 0.000000 0.000000 0.000000 0.000000 
